<svg width="78" height="78" fill="none" xmlns="http://www.w3.org/2000/svg"><path d="M1.3 1.3h75.4v16.9H1.3V1.3Z" fill="#F9ADB1"/><path d="M70.8 11.7a5.9 5.9 0 0 0-5.8 5.9v.6a6.5 6.5 0 1 0-13 0l-12 1.2.3-.5-13.1-4.4c-.8 1-1.2 2.4-1.2 3.7a6.5 6.5 0 1 0-13 0v-.6a5.9 5.9 0 1 0-11.7 0c0 4.7.6 9.4 1.7 14l3.5 13.9L12 27.8c.7-2 1-4.2 1-6.4v.7a6.3 6.3 0 0 0 1.9 4.5l4.4 4.4a.3.3 0 0 0 .4 0l4.4-4.4A6.3 6.3 0 0 0 26 22c0 1.7.7 3.3 1.9 4.5l4.4 4.4a.3.3 0 0 0 .4 0l4.5-4.4A6.3 6.3 0 0 0 39 22c0 1.7.7 3.3 1.9 4.5l4.4 4.4a.3.3 0 0 0 .4 0l4.4-4.4A6.3 6.3 0 0 0 52 22a6.3 6.3 0 0 0 1.9 4.5l4.4 4.4a.3.3 0 0 0 .4 0l4.4-4.4A6.3 6.3 0 0 0 65 22v-.7c0 2.2.3 4.4 1 6.4l5.5 17.7L75 31.6a58 58 0 0 0 1.7-14 5.9 5.9 0 0 0-5.9-5.9Z" fill="#E4E4E2"/><path d="M50.3 9.1c-.2 0-.4 0-.6-.2a7.6 7.6 0 0 0-4-1.1h-.4c-1.1 0-2.2.2-3.2.7a1.3 1.3 0 0 1-1-2.4c1.3-.6 2.7-.9 4.2-.9h.4c1.9 0 3.7.5 5.3 1.5a1.3 1.3 0 0 1-.7 2.4Z" fill="#EEA5A9"/><path d="M57.2 33.8h2.6v2.6h-2.6v-2.6ZM57.2 39h2.6v5.2h-2.6V39Z" fill="#C0F5F9"/><path d="M39 18.2v1.3l-2.8.9a5.3 5.3 0 0 1-5.4-1.3l-2.7-2.7c-.5-.5-.8-1.2-1-2A6.5 6.5 0 0 1 39 18.3Z" fill="#FBB540"/><path d="M33.8 18.2a1.3 1.3 0 1 0 0-2.6 1.3 1.3 0 0 0 0 2.6Z" fill="#DA922A"/><path d="M52 18.2h-2.3a3 3 0 0 0-2.5 1.3 3.8 3.8 0 0 1-4.6 1.5L39 19.5v-1.3a6.5 6.5 0 0 1 5.8-6.5h.7a6.6 6.6 0 0 1 2.5.5 6.5 6.5 0 0 1 4 6Z" fill="#FBB540"/><path d="M44.2 18.2a1.3 1.3 0 1 0 0-2.6 1.3 1.3 0 0 0 0 2.6Z" fill="#DA922A"/><path d="M53.3 49.4a1.3 1.3 0 0 1-1.3-1.3V23.4a1.3 1.3 0 0 1 .6-1.1l3.3-2a.6.6 0 0 0-.7-.8h-7.1a1.3 1.3 0 0 1 0-2.6h7.1a3.2 3.2 0 0 1 2.6 5.2l-.3.3-2.9 1.7v24a1.3 1.3 0 0 1-1.3 1.3Z" fill="#6CBAE5"/><path d="M53.3 48.1a3.9 3.9 0 0 1 3.9 3.9v24.7h-7.8V52a3.9 3.9 0 0 1 3.9-3.9Z" fill="#428DC5"/><path d="M53.3 59.8h3.9v2.6h-3.9v-2.6ZM53.3 65h3.9v2.6h-3.9V65ZM53.3 70.2h3.9v2.6h-3.9v-2.6Z" fill="#3775A4"/><path d="M49.4 55.9h7.8V52a3.9 3.9 0 0 0-7.8 0v3.9Z" fill="#4799CF"/><path d="M57.2 33.8h2.6v2.6h-2.6v-2.6ZM57.2 39h2.6v5.2h-2.6V39Z" fill="#000"/><path d="M76.7 0H1.3A1.3 1.3 0 0 0 0 1.3v17C0 23 .7 27.5 1.8 32l3.4 13.8a1.3 1.3 0 0 0 1.3 1 1.3 1.3 0 0 0 1.2-1l5.6-17.6.3-1.1.3.4 4.5 4.4a1.6 1.6 0 0 0 2.2 0l4.5-4.4.9-1.2 1 1.2 4.4 4.4a1.6 1.6 0 0 0 2.2 0l4.5-4.4.9-1.2 1 1.2 4.4 4.4a1.6 1.6 0 0 0 2.2 0l4.5-4.4.9-1.2V47a5.2 5.2 0 0 0-3.9 5v24.7a1.3 1.3 0 0 0 1.3 1.3h7.8a1.3 1.3 0 0 0 1.3-1.3V52a5.2 5.2 0 0 0-3.9-5V29l2.8 2.8a1.6 1.6 0 0 0 2.2 0l4.5-4.4c0-.2.2-.3.3-.4l.3 1.1L70.3 46a1.3 1.3 0 0 0 1.2.9 1.3 1.3 0 0 0 1.3-1L76.2 32A59.4 59.4 0 0 0 78 18.2V1.3A1.3 1.3 0 0 0 76.7 0Zm-1.3 2.6V12a7.1 7.1 0 0 0-10.6 1.7 7.8 7.8 0 0 0-12.8.2 7.9 7.9 0 0 0-7.3-3.5A7.8 7.8 0 0 0 39 14a7.9 7.9 0 0 0-7.2-3.5 7.8 7.8 0 0 0-5.7 3.3l-.1.2a7.8 7.8 0 0 0-12.8-.2A7.1 7.1 0 0 0 2.6 12V2.6h72.8ZM55.9 20.1v.3l-2.6 1.5v-2.4h2a.6.6 0 0 1 .6.6ZM48.1 17a1.3 1.3 0 0 0-1.3 1.1l-.7.8a2.5 2.5 0 0 1-3 1l-2.8-1.2v-.4a5.2 5.2 0 0 1 10.2-1.3h-2.4Zm-10.4 1.6-1.9.6a4 4 0 0 1-4-.9L28.4 15v-.2a5.2 5.2 0 0 1 9.2 3.4v.3Zm-27 9-4 13.2-2.4-9.4a56.8 56.8 0 0 1-1.7-13.8 4.5 4.5 0 0 1 9.1 0v4c0 2-.3 4-1 6Zm8.8 1.9-3.7-3.8a5 5 0 0 1-1.5-3.5v-3.9a5.2 5.2 0 0 1 10.4 0v3.9a5 5 0 0 1-1.5 3.5l-3.7 3.8Zm16.7-3.8-3.7 3.8-3.7-3.8a5 5 0 0 1-1.5-3.5v-4.6L30 20l.2.3a6.5 6.5 0 0 0 6.5 1.3l1.1-.3v.8a5 5 0 0 1-1.5 3.5Zm14.5-3.5a5 5 0 0 1-1.5 3.5l-3.7 3.8-3.7-3.8a5 5 0 0 1-1.5-3.5v-.7l1.8.8a5 5 0 0 0 4.3-.3c.8-.4 1.4-1 1.9-1.7a1.7 1.7 0 0 1 1.4-.7h1v2.6Zm0 53.3V57.2h5.2v2.6h-2.6v2.6h2.6V65h-2.6v2.6h2.6v2.6h-2.6v2.6h2.6v2.6h-5.2ZM55.9 52v2.6h-5.2V52a2.6 2.6 0 1 1 5.2 0Zm7.8-30a5 5 0 0 1-1.5 3.6l-3.7 3.8-3.7-3.8-.2-.1V24l2.9-1.7.4-.3a3.2 3.2 0 0 0-2.6-5.2h-1.8a5.2 5.2 0 0 1 10.2 1.3v3.9Zm7.7 18.7-4.2-13.2c-.6-2-.9-4-.9-6v-4a4.5 4.5 0 0 1 9.1 0c0 4.7-.6 9.3-1.7 13.8l-2.3 9.4Z" fill="#000"/><path d="M42.1 8.5c1-.5 2-.7 3.2-.7h.4c1.4 0 2.8.4 4 1.1A1.3 1.3 0 0 0 51 6.7c-1.6-1-3.4-1.5-5.3-1.5h-.4c-1.5 0-3 .3-4.2 1a1.3 1.3 0 0 0 1 2.3ZM33.8 18.2a1.3 1.3 0 1 0 0-2.6 1.3 1.3 0 0 0 0 2.6ZM44.2 18.2a1.3 1.3 0 1 0 0-2.6 1.3 1.3 0 0 0 0 2.6Z" fill="#000"/></svg>