<svg width="62" height="77" fill="none" xmlns="http://www.w3.org/2000/svg"><path d="M52.4 67.8V56.3h7.7v14a5.1 5.1 0 0 1-5.1 5.2h-2.6v-7.7Z" fill="#F6BB92"/><path d="m56.3 44.8 1-2.6 1-2.3a6.7 6.7 0 0 0-1.4-7.2 6.7 6.7 0 0 1-2-4.8v-6.2H27V28a6.7 6.7 0 0 1-2 4.8 6.7 6.7 0 0 0-1.4 7.2l1 2.5 31.8 2.4Z" fill="#834B10"/><path d="M60.1 50a7.7 7.7 0 0 0-6.4-7.6l-1.3-.2-6.6-1L41 46l-5-5-9 1.1v33.3h25.5V65.2a7.2 7.2 0 0 0 1-9h6.7V50Z" fill="#85BC94"/><path d="M55 23H26.9v-7.7a14 14 0 0 1 28.1 0V23Z" fill="#834B10"/><path d="M51.2 19.2h-1.3v-7.7h-18v7.7h-1.2a3.8 3.8 0 1 0 0 7.7H32V28a9 9 0 1 0 17.9 0V27h1.3a3.8 3.8 0 1 0 0-7.7Z" fill="#F6BB92"/><path d="M39.7 51v24.5H11a24.7 24.7 0 0 1 3.3-4.1l.1-.1a25.4 25.4 0 0 0 5.4-8l1.4-3.2.5-1.3h-3.6a5.1 5.1 0 0 1-5-3.8l-.6-2.6-.2-.6a2.6 2.6 0 0 1 2.5-3.2h4.4a11 11 0 0 1 4.7-6l.6-.2A10 10 0 0 1 34 42a10 10 0 0 1 5.6 9Z" fill="#BD9070"/><path d="M39.7 51.2v3.6a3.8 3.8 0 1 1-7.7 0v-6.2h5l2.7 2.6Zm-12 6-2.5 2.5a1.3 1.3 0 0 1-.9.4h-3.1l.5-1.3h-3.6a5.1 5.1 0 0 1-3.4-1.2h9l2.3-2.2a1.3 1.3 0 0 1 1.8 1.8Zm-11-8.6v1.6a2.3 2.3 0 0 1-2.4 2.2h-1.8l-.2-.6a2.6 2.6 0 0 1 2.5-3.2h1.8Zm3.9 23.7a1.3 1.3 0 0 1-1-2 23.6 23.6 0 0 0 3.5-6.7 1.3 1.3 0 0 1 2.4-.2 1.3 1.3 0 0 1 0 1 26.2 26.2 0 0 1-3.9 7.4 1.3 1.3 0 0 1-1 .5Z" fill="#9E785D"/><path d="M30.7 19.2a8.7 8.7 0 0 0 5.3-5l1.1-2.7-6.4-1.3v9Zm6.4-7.7.1.2a16.7 16.7 0 0 0 14 7.5v-9L37 11.5Zm-1 11.8a1.6 1.6 0 1 0 0-3.2 1.6 1.6 0 0 0 0 3.2Zm9.6 0a1.6 1.6 0 1 0 0-3.2 1.6 1.6 0 0 0 0 3.2ZM41 28.1h-2.5a1.3 1.3 0 0 1-1.2-1.8l2.6-5.1a1.3 1.3 0 1 1 2.3 1.1l-1.7 3.3h.5a1.3 1.3 0 0 1 0 2.5Z" fill="#834B10"/><path d="M48.6 52.4a1.3 1.3 0 0 1-1.3-1.2v-9a1.3 1.3 0 1 1 2.6 0v9a1.3 1.3 0 0 1-1.3 1.2Z" fill="#C3C3C3"/><path d="M48.6 58.8a3.8 3.8 0 1 0 0-7.6 3.8 3.8 0 0 0 0 7.6Z" fill="#E4E4E2"/><path d="M48.6 56.3a1.3 1.3 0 1 0 0-2.6 1.3 1.3 0 0 0 0 2.6Z" fill="#C3C3C3"/><path d="M53.7 75.5H34.5a3.8 3.8 0 0 1 0-7.7h1.3a2.6 2.6 0 0 1 2.6-2.6h.2c.7 0 1.3.3 1.8.8l1.8 1.8h11.5v7.7Zm-42.5-6a3.2 3.2 0 0 0 2 4.4l5 1.4a3.8 3.8 0 1 0 2-7.4l-1.2-.3a2.6 2.6 0 0 0-1.8-3.2H17a2.6 2.6 0 0 0-2 .2 7.8 7.8 0 0 0-3.2 3.6l-.6 1.3Z" fill="#F6BB92"/><path d="M4.5 34.3c.9 0 1.7.4 2.3 1l1.6 1.6 1.6-1.6a3.2 3.2 0 0 1 5.4 1.5 4 4 0 0 1-1.6 4.2l-5.4 3.6L3 41a4 4 0 0 1-1.6-4.2 3.2 3.2 0 0 1 3.1-2.5Z" fill="#DC4D41"/><path d="M30.7 19.2H32v7.7h-1.3v-7.7Zm19.2 0h1.3v7.7h-1.3v-7.7Z" fill="#EEB58E"/><path d="m36 41 5 5 4.8-4.9a1.3 1.3 0 0 1-1-1.2v-4H37v4A1.3 1.3 0 0 1 36 41Z" fill="#F6BB92"/><path d="M41 37.1a9 9 0 0 1-9-9V27h17.9V28a9 9 0 0 1-9 9Z" fill="#85BC94"/><path d="M25.6 51.2a1.3 1.3 0 1 0 0-2.6 1.3 1.3 0 0 0 0 2.6Z" fill="#9E785D"/><path d="M36.1 23.3a1.6 1.6 0 1 0 0-3.2 1.6 1.6 0 0 0 0 3.2Zm9.6 0a1.6 1.6 0 1 0 0-3.2 1.6 1.6 0 0 0 0 3.2Zm3 33a1.3 1.3 0 1 0 0-2.6 1.3 1.3 0 0 0 0 2.6Z" fill="#000"/><path d="m58.3 43.2 1.2-2.8a8 8 0 0 0-1.7-8.7 5.4 5.4 0 0 1-1.6-3.8V15.4a15.3 15.3 0 0 0-30.6 0v12.5a5.4 5.4 0 0 1-1.6 3.8 8 8 0 0 0-1.7 8.7l.6 1.4a12.2 12.2 0 0 0-4.6 5.5h-3.5a3.8 3.8 0 0 0-3.3 1.9 3.8 3.8 0 0 0-.4 2.9l.1.7.7 2.5A6.4 6.4 0 0 0 18 60h1.7l-1.1 2.7-.4.7a3.9 3.9 0 0 0-.7-.3h-.2a3.8 3.8 0 0 0-3 .3 9.1 9.1 0 0 0-3.8 4.1L10 69a4.5 4.5 0 0 0 .7 4.7 27 27 0 0 0-.7 1 1.3 1.3 0 0 0 1 2h44a6.4 6.4 0 0 0 6.4-6.3V50a9 9 0 0 0-3-6.8Zm.5 6.8v5h-4.7a8.6 8.6 0 0 0-.4-.5 5.1 5.1 0 0 0-3.8-4.4v-7l2.3.4 1.3.2a6.4 6.4 0 0 1 5.3 6.3Zm-7.3 14.4-.1.1a1.3 1.3 0 0 0 0 .1l-.1.2a1.3 1.3 0 0 0-.1.2v.1a1.3 1.3 0 0 0 0 .1v1.3h-8.5l-1.4-1.4a3.9 3.9 0 0 0-.4-.3V50.9c0-1.3-.2-2.5-.6-3.8a1.3 1.3 0 0 0 1.7-.3l3.3-4.5h.3l1.7.4V50a5.1 5.1 0 1 0 5.5 7.8 6 6 0 0 1-1.3 6.4v.1Zm-20.8-44v5.2a2.6 2.6 0 0 1-1.8-4.4c.5-.5 1.1-.7 1.8-.7Zm23 2.6a2.6 2.6 0 0 1-2.5 2.6v-5.1a2.6 2.6 0 0 1 2.5 2.5Zm-5 2.6h-8.3l1.7-3.3a1.3 1.3 0 1 0-2.3-1.1l-2.2 4.4h-4.3v-6.2a10 10 0 0 0 4-4.8l.1-.5a17.9 17.9 0 0 0 11.2 6.2v5.3ZM38.3 28h10.2a7.7 7.7 0 0 1-15.3 0h5Zm2.5 10.3c.9 0 1.8-.1 2.6-.3v2.3L41 44l-2.6-3.5v-2.3l2.6.3Zm-2.5 16.4a2.6 2.6 0 1 1-5.1 0v-5h3.3l1.8 1.9v3.1Zm12.8.2a2.6 2.6 0 1 1-5.1 0 2.6 2.6 0 0 1 5 0Zm6-15.6-1 2.4a9 9 0 0 0-2.3-.6l-1.2-.2-6.7-1.1V37a10.2 10.2 0 0 0 5.2-8.9c.8 0 1.7-.2 2.5-.6v.4a8 8 0 0 0 2.3 5.7 5.4 5.4 0 0 1 1.1 5.8ZM40.8 2.6a12.8 12.8 0 0 1 12.8 12.8v3.2a5 5 0 0 0-2.5-.7H50A15.3 15.3 0 0 1 38.3 11l-.1-.2a1.3 1.3 0 0 0-2.3.2l-1 2.7a7.4 7.4 0 0 1-4.4 4.2 5 5 0 0 0-2.4.7v-3.2A12.8 12.8 0 0 1 41 2.6Zm-15 31a7.9 7.9 0 0 0 2.2-5.7v-.4a5 5 0 0 0 2.6.6 10.2 10.2 0 0 0 5.1 8.9v2.8l-2.8.4-.8-.2a11.2 11.2 0 0 0-7 .6l-.5-1.2a5.4 5.4 0 0 1 1.1-5.8ZM14.7 49.9h.5v.3a1 1 0 0 1-1 1h-.8v-.4a1.3 1.3 0 0 1 .3-.4 1.3 1.3 0 0 1 1-.5ZM24.3 60a1.3 1.3 0 0 0 1-.4l2.5-2.5a1.3 1.3 0 0 0-1.8-1.8l-2.2 2.2H18a3.8 3.8 0 0 1-3.8-3l-.2-.9h.2a3.6 3.6 0 0 0 3.6-3.5v-.3h1.3a1.3 1.3 0 0 0 1.2-.9 9.7 9.7 0 0 1 4.2-5.2l.6-.3a8.7 8.7 0 0 1 8.3-.4 8.6 8.6 0 0 1 1.7 1.1 8.7 8.7 0 0 1 2.4 3.3 1.3 1.3 0 0 0-.5-.2H32a1.3 1.3 0 0 0-1.3 1.3v6.2a5.1 5.1 0 0 0 7.7 4.4V64a3.8 3.8 0 0 0-3.6 2.5h-.3a5.1 5.1 0 0 0-4.4 7.7h-6.5a5.1 5.1 0 0 0 0-5.3 26.3 26.3 0 0 0 2-4.5 1.3 1.3 0 0 0-2.5-.8 23.8 23.8 0 0 1-1.5 3.5 5.1 5.1 0 0 0-1-.4h-.2a3.8 3.8 0 0 0-.2-1l.8-1.9 1.6-3.7h1.7Zm-12 10 .7-1.4a6.5 6.5 0 0 1 2.7-3 1.3 1.3 0 0 1 1-.1h.2a1.3 1.3 0 0 1 .9 1.6 1.3 1.3 0 0 0 .8 1.6l1.3.4a2.6 2.6 0 0 1-1.4 4.9l-5-1.4a2 2 0 0 1-1.2-2.6Zm46.5.3a3.8 3.8 0 0 1-3.8 3.8H34.5a2.6 2.6 0 1 1 0-5.1h1.3a1.3 1.3 0 0 0 1.3-1.3 1.3 1.3 0 0 1 1.3-1.3h.2c.3 0 .7.2.9.4l1.8 1.8a1.3 1.3 0 0 0 1 .4h10.1a1.3 1.3 0 0 0 1.3-1.3v-2a8.5 8.5 0 0 0 1.8-8.2h3.3v12.8Z" fill="#000"/><path d="M16.6 36.5a4.5 4.5 0 0 0-7.5-2.1l-.7.7-.7-.7a4.5 4.5 0 0 0-7.5 2 5.2 5.2 0 0 0 2.1 5.7l5.4 3.5a1.3 1.3 0 0 0 1.4 0l5.4-3.5a5.2 5.2 0 0 0 2.1-5.6Zm-3.5 3.4L8.4 43l-4.7-3a2.7 2.7 0 0 1-1-3 2 2 0 0 1 3.2-.8l1.6 1.6a1.3 1.3 0 0 0 1.8 0l1.6-1.6a2 2 0 0 1 3.3.9 2.7 2.7 0 0 1-1.1 2.8Zm12.5 11.3a1.3 1.3 0 1 0 0-2.6 1.3 1.3 0 0 0 0 2.6Z" fill="#000"/></svg>