<svg width="40" height="78" fill="none" xmlns="http://www.w3.org/2000/svg"><path d="M31.2 61.3H8.8l-2.4-4.5h27.2l-2.4 4.5Z" fill="#716680"/><path d="m29 56.8-2.3 4.5h4.5l2.4-4.5H29Z" fill="#635870"/><path d="M15.5 61.3h9v4.5h-9v-4.5Z" fill="#FF573D"/><path d="M20 61.3h4.5v4.5H20v-4.5Z" fill="#E64028"/><path d="M6.4 17.5h27.2v39.3H6.4V17.5Z" fill="#CEE8F2"/><path d="M29 17.5h4.6v39.3H29V17.5Z" fill="#9AD5ED"/><path d="M36.6 17.5H3.4a2.3 2.3 0 1 1 0-4.5h33.2a2.3 2.3 0 1 1 0 4.5Z" fill="#716680"/><path d="M36.6 13h-4.5a2.3 2.3 0 1 1 0 4.5h4.5a2.3 2.3 0 1 0 0-4.5Z" fill="#635870"/><path d="M27.8 5.7H12.2a2.3 2.3 0 1 1 0-4.6h15.6a2.3 2.3 0 1 1 0 4.6Z" fill="#E8E1D5"/><path d="M27.8 1.1h-4.5a2.3 2.3 0 1 1 0 4.6h4.5a2.3 2.3 0 1 0 0-4.6ZM17.7 5.7h4.6V13h-4.6V5.7Z" fill="#D6CFC4"/><path d="M6.4 39.7v17h27.2V42.4c-9-.5-13-6.7-20-6.7-3 0-5.6 1.6-7.2 4Z" fill="#78C0DE"/><path d="M33.6 39.7v17H6.4V42.4c9-.5 13-6.7 20-6.7a8.5 8.5 0 0 1 7.2 4Z" fill="#89CEEA"/><path d="M33.6 39.7v17H29V36.2c1.8.6 3.4 1.9 4.5 3.6Z" fill="#78C0DE"/><path d="M28.6 31.2a3 3 0 1 1-6 0 3 3 0 0 1 6 0ZM17.4 31.2a3 3 0 1 1-6 0 3 3 0 0 1 6 0Z" fill="#B0693C"/><path d="M27 36.5c0-3-3.2-5.6-7-5.6s-7 2.5-7 5.6c0 3.1 3.2 5.6 7 5.6s7-2.5 7-5.6Z" fill="#FFD659"/><path d="M36.6 11.8h-6.9a1.1 1.1 0 1 0 0 2.3h6.9a1.1 1.1 0 0 1 0 2.3H3.4a1.1 1.1 0 0 1 0-2.3h21.5a1.1 1.1 0 1 0 0-2.3h-1.5v-5h4.4a3.4 3.4 0 0 0 0-6.8H12.2a3.4 3.4 0 0 0 0 6.8h4.4v5H3.4a3.4 3.4 0 0 0 0 6.8h1.9v.7a1.1 1.1 0 1 0 2.2 0v-.7h25v18.1a9.6 9.6 0 0 0-4.5-2c1-.8 1.7-2 1.7-3.5a4.2 4.2 0 0 0-8-1.2 9.7 9.7 0 0 0-3.3 0 4.2 4.2 0 1 0-6.4 4.6c-1.6.3-3.2 1-4.5 2.1V24.2a1.1 1.1 0 0 0-2.2 0v32.6a1 1 0 0 0 0 .3l.1.2 2.4 4.5c.2.4.6.6 1 .6h5.5v3.4c0 .6.5 1.1 1.2 1.1h3.4v9.3a1.1 1.1 0 0 0 2.2 0v-9.3h3.4c.7 0 1.2-.5 1.2-1v-3.5h5.5c.4 0 .8-.2 1-.6l2.4-4.5a1 1 0 0 0 0-.3l.1-.1V53a1.1 1.1 0 1 0-2.2 0v2.5h-25V43.3c3-.3 5.2-1.1 7-2a9 9 0 0 0 5.5 2 9 9 0 0 0 5.6-2c1.7.9 4 1.7 6.9 2v5a1.1 1.1 0 0 0 2.2 0V18.6h1.9a3.4 3.4 0 0 0 0-6.8ZM11 3.4c0-.6.5-1.1 1.2-1.1h15.6a1.1 1.1 0 0 1 0 2.2H12.2c-.7 0-1.2-.5-1.2-1.1ZM19 6.8H21v5H19v-5Zm6.7 22.6a1.9 1.9 0 0 1 1 3.4 7.8 7.8 0 0 0-2.8-2.2c.3-.7 1-1.2 1.8-1.2Zm-11.2 0c.8 0 1.5.5 1.8 1.2a7.8 7.8 0 0 0-2.9 2.2c-.5-.4-.8-1-.8-1.6 0-1 .9-1.8 2-1.8Zm9 35.3h-6.8v-2.3h6.8v2.3Zm8.3-6.8-1.2 2.3h-21l-1.2-2.3h23.4ZM7.5 40c1.1-1.5 2.7-2.6 4.4-3 .1 1 .4 1.8 1 2.6-1.5.6-3.2 1.2-5.4 1.4v-1Zm8-.7-.2-.1a3.8 3.8 0 0 1-1.1-2.7c0-.6.2-1.2.4-1.7a5.4 5.4 0 0 1 3.2-2.4 7.3 7.3 0 0 1 4.5 0c1.3.5 2.4 1.3 3 2.4.3.5.5 1.1.5 1.7a3.8 3.8 0 0 1-1.3 2.8c-1 1-2.7 1.7-4.5 1.7-1.8 0-3.5-.7-4.5-1.7Zm11.7.3c.5-.8.8-1.7.9-2.6 1.7.4 3.3 1.5 4.4 3v1c-2.2-.2-3.9-.8-5.3-1.4Z" fill="#000"/><path d="M19.2 34.5a1.1 1.1 0 1 1-2.3 0 1.1 1.1 0 0 1 2.3 0ZM23 34.5a1.1 1.1 0 1 1-2.2 0 1.1 1.1 0 0 1 2.3 0Z" fill="#000"/></svg>