<svg width="78" height="77" fill="none" xmlns="http://www.w3.org/2000/svg"><path d="M76.2 1.3v44.3l-1.3 2 1.3 2.8v10L75 62.1l1.3 1.5v12H45.4l-2.7-1-2.4 1H1.8V1.3h74.4Z" fill="#3775A4"/><path d="m76.2 45.6-.8 2.2.8 2.6v10l-1 1.6 1 1.7v6.9l-4.9 2.9a18.4 18.4 0 0 1-8.8 2.2h-17l-2.8-.8-2.4.8h-2.6L35 71.5c-1.5-2.3-2.3-5-2.3-7.6v-3.3c0-1.9-.5-3.7-1.3-5.4L30 52.6l-2.6-9-3.8-5.1-6.4 2.6h-4.5a2 2 0 0 1 0-3.9h2l7.6-3.8v-2.6H7v-5.5a2.6 2.6 0 0 1 2.2-2.6l5.5-.9 2.6-2.6 7.7-2.5-.3-1c-.7-1.8-.6-3.9.1-5.7l1.5-3.6 10.2 16.7 4 5c4 5 9.8 8.6 16.2 10l4 .8c2.7.6 5.5.6 8.2 0l7.4-1.8v8.5Z" fill="#2A597C"/><path d="m39 45-5.2-5.3 2.5-2.6 5.3 5.3-2.5 2.6H39Z" fill="#DBDBDB"/><path d="m39 45 6.4 5 2.6-3.8-6.4-3.9L39 45ZM76.2 45.6v4.8a81.2 81.2 0 0 1-24 .5l-6.8-.9 2.6-3.8 1 .1a80 80 0 0 0 27.2-.7Z" fill="#EBEBEB"/><path d="M45.8 41.1c-2.8 4.2-4.6 9-5.3 14l-.2 1.4H44l.4-.9c1.4-3.7 3.5-7.1 6-10.2l.3-.5a3 3 0 0 0 .5-2.8v-.2a3 3 0 0 0-5.5-.8ZM76.2 60.3v3.4A14 14 0 0 1 66 69.6 37.4 37.4 0 0 1 44.8 65a1.3 1.3 0 0 1 1.2-2.3c1.9 1 3.8 1.9 5.8 2.6.8-1.8 1-3.8.9-5.7l-.4-3.7a14 14 0 0 1 2.3-9.1l2.6-4a1.3 1.3 0 0 1 2.1 1.4l-2.6 4a11.4 11.4 0 0 0-1.9 7.4l.4 3.7c.2 2.3 0 4.6-1 6.7l4.3.8c1-2.2 1.3-4.7 1-7l-.8-3.7a14 14 0 0 1 1.5-9.3l2.3-4.1a1.3 1.3 0 0 1 2.3 1.2l-2.3 4.2c-1.3 2.3-1.7 5-1.3 7.5l.7 3.7c.5 2.6.3 5.3-.7 7.7a34.8 34.8 0 0 0 5.1-.1c.8-2.4.9-5 .1-7.3L65.3 56c-1-3-.8-6.4.4-9.4l1.8-4.3a1.3 1.3 0 1 1 2.3 1l-1.7 4.3c-1 2.4-1.1 5.1-.4 7.6L69 59c.7 2.4.8 4.9.3 7.3a11.4 11.4 0 0 0 3.6-2.5c.6-2 .5-4.2-.1-6.3l-1-3.5c-1-3-.9-6.2.3-9l1.2-3a1.3 1.3 0 1 1 2.4 1l-1.2 3c-1 2.2-1 4.9-.3 7.3l1 3.4c.4 1.2.6 2.5.7 3.7h.4Z" fill="#DBDBDB"/><path d="M35.1 1.3h2.6v6.4h-2.6V1.3ZM17.2 1.3h2.6V9h-2.6V1.3ZM42.9 1.3h2.5V5H43V1.3ZM50.5 1.3h2.6v6.4h-2.6V1.3ZM58.3 1.3h2.5V5h-2.5V1.3ZM67.2 1.3h2.6v6.4h-2.6V1.3ZM28.7 71.9h2.6v3.7h-2.6v-3.7ZM21 69.3h2.6v6.3H21v-6.3ZM13.3 71.9H16v3.7h-2.6v-3.7ZM1.9 64.2h3.7v2.5H2v-2.5ZM1.9 56.5h6.3V59H1.9v-2.5ZM1.9 48.8h3.7v2.5H2v-2.5ZM1.9 9h3.7v2.6H2V9ZM9.5 1.3H12V5H9.5V1.3ZM51.8 15.4h2.6V18h-2.6v-2.6ZM57 15.4h10.2V18H57v-2.6ZM51.8 20.5h10.3v2.6H51.8v-2.6ZM64.7 20.5h2.5v2.6h-2.5v-2.6Z" fill="#2F638B"/><path d="M40.3 56.5 37.7 59l2.6 3.9v12.8h5.1V63l1.3-3.9-2.6-2.5h-3.8ZM36.4 37.2 34 39.8l-5.2-3.9-2.5-5.1 4-3 1.6 2.5 4.6 7Z" fill="#EBEBEB"/><path d="M31.8 30.3a4 4 0 0 1-3.3 1.8h-1.7l-.6-1.3 4-3 1.6 2.5Z" fill="#DADADA"/><path d="M28.4 21.8h-5.2a5.1 5.1 0 0 0-3.7 1.5l-2.3 2.4-5.7.8a3.9 3.9 0 0 0-3.3 3.8v.5h20a4 4 0 0 0 3.9-3l.2-1a4 4 0 0 0-3.9-5Z" fill="#EBEBEB"/><path d="M12.7 37.2h2l7.6-3.8v-.7a3.2 3.2 0 1 1 6.4 0v3.7l-11.5 4.7h-4.5a2 2 0 1 1 0-3.9Z" fill="#DBDBDB"/><path d="M76.2 0H1.8A1.3 1.3 0 0 0 .5 1.3v74.4A1.3 1.3 0 0 0 1.8 77h74.4a1.3 1.3 0 0 0 1.3-1.3V1.3A1.3 1.3 0 0 0 76.2 0ZM39.1 55.9 36.8 58a1.3 1.3 0 0 0-.2 1.6l2.4 3.6v11.1h-.6L36 70.8c-1.4-2-2.1-4.5-2.1-7v-3.2c0-2-.5-4.1-1.5-6L31.2 52l-2.5-8.8-.2-.4-3-4 3-1.5 4.5 3.4 5 5h.1v.1h.1l2.7 2.2c-.8 2.2-1.3 4.4-1.7 6.7l-.1 1ZM30 32h.7l4 5-1 1-3.7-2.8V32Zm1-5.6-.2 1a2.7 2.7 0 0 1-2.2 2 4.5 4.5 0 0 0-6.2 0H9.6a2.6 2.6 0 0 1 2-1.8l5.8-.8c.2 0 .5-.1.7-.3l2.3-2.4c.8-.7 1.7-1.1 2.8-1.1h5.2a2.7 2.7 0 0 1 2.7 3.4Zm-8.1 8a1.3 1.3 0 0 0 .7-1.1v-.7a2 2 0 0 1 3.8 0v2.4L17 39.8h-4.2a.6.6 0 0 1 0-1.3h2l.5-.1 7.7-3.9Zm12.8 5.3.7-.8 3.4 3.4-.8.7-3.3-3.3Zm8.5 22.7v11.9h-2.6V63l-.2-.7-2-3 1.4-1.5h2.8l1.6 1.7-1 3Zm-1-7.4h-1.4c.7-4.7 2.4-9.2 5-13.2a1.8 1.8 0 0 1 3.2.4v.2a1.8 1.8 0 0 1-.2 1.6l-.4.5A41.8 41.8 0 0 0 43.3 55ZM41 44.8l.9-.8.7.4-.6 1.2-1-.8Zm9.3 3 3.6.4-.7 1.6-.8-.1-3-.4.9-1.5Zm-4.5 8.3 2-4.4 4.3.5h.4c-.2 1.3-.2 2.5-.1 3.8l.4 3.7c.2 2-.1 3.9-.9 5.7-1.8-.6-3.5-1.3-5.1-2.2V63l1.2-3.7a1.3 1.3 0 0 0-.3-1.3l-2-2Zm29.2 18.3h-2.7l2.7-1.6v1.6Zm0-4.5-4.2 2.5c-2.5 1.3-5.3 2-8.2 2H46.7v-8.3a37 37 0 0 0 19.2 3.5 14 14 0 0 0 9-4.4V70ZM55.2 59.4l-.4-3.7c0-1 0-2.1.2-3.1l3.5.2c0 1.1 0 2.3.2 3.4l.7 3.7c.4 2.3.1 4.8-.9 7l-4.2-.8c.8-2.1 1.1-4.4 1-6.7Zm.5-9.4 1-1.6h2.8l-.6 1.8c-1 0-2.1 0-3.2-.2Zm6 2.9h3c0 1 .3 2.1.6 3.2l1.1 3.6c.8 2.4.7 5-.1 7.3h-.7c-1.4.2-3 .2-4.4.1 1-2.4 1.2-5.1.7-7.7l-.7-3.7c-.1-1-.2-1.9-.1-2.8h.6Zm-.1-2.6.7-1.9 2.9-.1-.4 2h-3.2Zm9.6 2 .4 1.6 1.1 3.5c.6 2 .7 4.3 0 6.3-1 1-2.2 1.9-3.5 2.5.5-2.4.4-5-.3-7.3l-1.2-3.6c-.2-.8-.4-1.7-.4-2.6l4-.4ZM67.4 50l.5-2 3.3-.5-.2 2.1-3.6.4Zm7.5 5.9-.8-2.8-.4-1.3 1.2-.2V56Zm0-7c-.4.2-.9.2-1.3.3l.3-2.2c.4 0 .7 0 1-.2v2.2Zm0-7.8a1.3 1.3 0 0 0-1.7.7l-1.2 3-3 .4.8-2a1.3 1.3 0 1 0-2.3-1L66 45.7l-2.3.2 1-1.8a1.3 1.3 0 0 0-2.3-1.2l-1.7 3.1h-2.5l1-1.6a1.3 1.3 0 0 0-2.1-1.4l-1.9 2.8-3.3-.2a4.3 4.3 0 0 0 .5-3.9v-.1a4.3 4.3 0 0 0-7.8-1l-1 1.6-1.3-.8-5-5-5-6.3c.4-.5.7-1.2.9-2l.2-.9a5.3 5.3 0 0 0-5-6.6h-5.3a6.4 6.4 0 0 0-4.6 2l-2 2-5.3.7c-1.2.2-2.3.8-3.1 1.7v-1.6a1.3 1.3 0 0 1 1-1.3l5.6-1c.3 0 .5 0 .7-.3l2.4-2.3 7.4-2.5a1.3 1.3 0 0 0 .8-1.6l-.3-1a7 7 0 0 1 .1-4.8l.5-1.2 9 14.5v.1l4 5c4.3 5.3 10.2 9 17 10.4l3.9.9c2.9.6 5.9.5 8.8-.1l5.8-1.4v2.5Zm0-5.1-6.4 1.5c-2.5.6-5.2.6-7.7 0l-4-.8a27.2 27.2 0 0 1-15.4-9.6l-4-4.8L27.4 5.7A1.3 1.3 0 0 0 25 6l-1.5 3.6c-.8 2-.9 4.3-.2 6.4L16.8 18l-.5.3-2.3 2.3-5.1.9a3.8 3.8 0 0 0-3.3 3.8v5.5A1.3 1.3 0 0 0 7 32.1H21v.5l-6.7 3.3h-1.6a3.2 3.2 0 0 0 0 6.5H17.4a1.2 1.2 0 0 0 .2-.1l5.6-2.2 3 4.1 2.6 8.8v.2l1.3 2.5a11 11 0 0 1 1.2 5v3.2c0 3 .9 5.8 2.5 8.3l1.5 2.2h-4V72h-2.6v2.5h-5.1v-5.1H21v5.1H16V72h-2.6v2.5H3.1v-7.7h2.5v-2.5H3.1V59h5.1v-2.5H3.1v-5.2h2.5v-2.5H3.1V11.5h2.5V9H3.1V2.6h6.4V5H12V2.6h5V9h2.6V2.6h15.4v5.1h2.6V2.6h5.1V5h2.6V2.6h5.1v5.1h2.6V2.6h5.1V5h2.6V2.6h6.4v5.1h2.6V2.6h5.1V36Z" fill="#000"/><path d="M51.8 15.4h2.6V18h-2.6v-2.6ZM57 15.4h10.2V18H57v-2.6ZM51.8 20.5h10.3v2.6H51.8v-2.6ZM64.7 20.5h2.5v2.6h-2.5v-2.6Z" fill="#000"/></svg>